# xmcd CD database file
#
# Track frame offsets:
#	150
#	19347
#	37860
#	57720
#	84362
#	109197
#	126915
#	152662
#	168865
#	196035
#
# Disc length: 3163 seconds
#
# Revision: 2
# Processed by: cddbd v1.5.2PL0 Copyright (c) Steve Scherf et al.
# Submitted via: CDex 1.70beta2
#
DISCID=780c590a
DTITLE=The Walkabouts - Acetylene
DYEAR=2005
DGENRE=Alternativ Country
TTITLE0=Fuck Your Fear
TTITLE1=Coming Up For Air
TTITLE2=Devil In The Details
TTITLE3=Whisper
TTITLE4=Kalashnikov
TTITLE5=Have You Ever Seen The Morning?
TTITLE6=Northsea Train
TTITLE7=Acetylene
TTITLE8=Before This City Wakes
TTITLE9=The Last Ones
EXTD=YEAR: 2005
EXTT0=
EXTT1=
EXTT2=
EXTT3=
EXTT4=
EXTT5=
EXTT6=
EXTT7=
EXTT8=
EXTT9=
PLAYORDER=
